<?xml version="1.0" encoding="utf-8"?>
<!-- Generator: Adobe Illustrator 27.5.0, SVG Export Plug-In . SVG Version: 6.00 Build 0)  -->
<svg version="1.1" id="Layer_1" xmlns="http://www.w3.org/2000/svg" xmlns:xlink="http://www.w3.org/1999/xlink" x="0px" y="0px"
	 viewBox="0 0 4000 4000" style="enable-background:new 0 0 4000 4000;" xml:space="preserve">
<g>
	<!-- <g>
		<rect style="fill:#67E9FF;" width="4000" height="4000"/>
	</g> -->
	<g>
		<g>
			<g>
				<path style="fill:#FFFFFF;" d="M3104.367,3162.384c0,0-69.023-729.055-187.658-942.594
					c-118.632-213.54-509.042-157.661-509.042-157.661s-81.302,80.01-125.852,86.481c-44.548,6.471-281.816,10.767-281.816,10.767
					s-237.266-4.297-281.813-10.767c-44.55-6.471-125.853-86.481-125.853-86.481s-390.411-55.879-509.045,157.661
					c-118.632,213.539-187.655,942.594-187.655,942.594c-16.548,150.293-8.628,327.859,107.849,373.155
					c116.474,45.297,211.383,8.628,211.383,8.628s153.145-174.714,217.853-278.248c64.708-103.535,217.853-116.477,217.853-116.477
					h349.427h349.43c0,0,153.145,12.942,217.853,116.477c64.708,103.534,217.853,278.248,217.853,278.248
					s94.906,36.669,211.383-8.628C3112.995,3490.243,3120.912,3312.677,3104.367,3162.384z"/>
			</g>
			<g>
				<path style="fill:#6C5D75;" d="M1196.71,3504.466c0,0-79.263-151.657-14.017-265.815
					c65.246-114.159,262.792-352.659,262.792-352.659l24.504-5.393c0,0-2.041-134.868,117.311-165.246
					c119.352-30.377,182.623,62.337,182.623,62.337h112.315h16.384l32.354,57.914h133.732l42.061-57.914h106.051l32.721-11.445
					c0,0,64.552-63.914,169.419-43.113c104.867,20.801,108.836,112.472,108.836,112.472l10.052,35.59l23.588,17.924
					c0,0,110.999,116.88,188.042,225.99c77.044,109.109,98.988,159.438,90.892,250.75c-8.096,91.312-44.157,164.178-44.157,164.178
					l-22.177-3.124l-179.267-225.663c0,0-31.517-99-175.254-138.345c-72.558-24.246-699.156-13.462-699.156-13.462
					s-119.027-15.106-209.243,46.371c-90.216,61.477-140.647,166.179-186.812,222.469c-46.165,56.29-97.928,117.247-97.928,117.247
					L1196.71,3504.466z"/>
			</g>
			<g>
				<g style="opacity:0.3;">
					<path style="fill:#371A45;" d="M3101.47,3070.005c-13.922,71.538-45.064,129.832-104.951,153.121
						c-116.477,45.297-211.383,8.628-211.383,8.628s-153.145-174.714-217.853-278.248
						c-64.708-103.535-217.853-116.477-217.853-116.477h-349.43h-349.427c0,0-153.145,12.942-217.853,116.477
						c-64.708,103.534-217.853,278.248-217.853,278.248s-94.909,36.669-211.383-8.628c-59.887-23.289-91.029-81.581-104.951-153.118
						c-1.913,18.472-2.898,28.852-2.898,28.852c-16.548,150.292-8.628,327.859,107.849,373.154
						c116.474,45.297,211.383,8.629,211.383,8.629s153.145-174.715,217.853-278.249c64.708-103.534,217.853-116.476,217.853-116.476
						h349.427h349.43c0,0,153.145,12.942,217.853,116.476c64.708,103.534,217.853,278.249,217.853,278.249
						s94.906,36.668,211.383-8.629c116.477-45.295,124.394-222.862,107.849-373.154
						C3104.367,3098.86,3103.382,3088.479,3101.47,3070.005z"/>
				</g>
			</g>
			<g>
				
					<ellipse transform="matrix(0.7071 -0.7071 0.7071 0.7071 -1388.63 1666.636)" style="fill:#6C5D75;" cx="1317.493" cy="2509.543" rx="153.864" ry="153.864"/>
			</g>
			<g>
				<path style="fill:#6C5D75;" d="M1182.836,2120.792c0,0,24.145-26.658,162.537-54.782c97.41-18.058,218.92-4.623,223.952-7.026
					c5.033-2.404,23.008-14.627,23.008-14.627s8.628-78.37-49.61-92.03c-58.238-13.661-208.538,8.693-292.284,28.073
					c-83.747,19.38-87.262,39.564-101.322,64.703c-14.06,25.139-20.992,86.799-20.992,86.799l9.808,13.833L1182.836,2120.792z"/>
			</g>
			<g>
				
					<ellipse transform="matrix(0.7071 -0.7071 0.7071 0.7071 -1557.9418 1999.9938)" style="fill:#6C5D75;" cx="1635.235" cy="2880.599" rx="165.246" ry="165.246"/>
			</g>
			<g>
				
					<ellipse transform="matrix(0.7071 -0.7071 0.7071 0.7071 -1344.2673 2515.8496)" style="fill:#6C5D75;" cx="2364.765" cy="2880.599" rx="165.246" ry="165.246"/>
			</g>
			<g>
				<path style="fill:#6C5D75;" d="M2415.599,2016.661c0,0,16.513-60.021,41.678-64.335c25.165-4.314,148.112-3.709,263.15,15.761
					c115.038,19.47,123.684,54.587,131.969,80.88s19.826,85.362,19.826,85.362l-13.749,6.732c0,0-83.989-61.366-216.709-77.058
					c-132.72-15.692-226.165-2.87-226.165-2.87l-5.915-15.529L2415.599,2016.661z"/>
			</g>
			<g>
				<path style="fill:#371A45;" d="M1635.235,3062.211c-100.142,0-181.611-81.47-181.611-181.611s81.47-181.616,181.611-181.616
					c100.142,0,181.611,81.475,181.611,181.616S1735.377,3062.211,1635.235,3062.211z M1635.235,2731.718
					c-82.092,0-148.882,66.787-148.882,148.882c0,82.09,66.79,148.877,148.882,148.877c82.092,0,148.882-66.787,148.882-148.877
					C1784.117,2798.505,1717.327,2731.718,1635.235,2731.718z"/>
			</g>
			<g>
				<path style="fill:#371A45;" d="M1214.871,3560.531c-5.752,0-11.328-3.037-14.316-8.423
					c-3.547-6.387-86.316-158.184-38.635-304.209c46.665-142.915,287.629-390.2,297.866-400.654
					c6.321-6.465,16.685-6.572,23.142-0.249c6.458,6.318,6.57,16.68,0.249,23.14c-2.454,2.51-245.845,252.251-290.144,387.92
					c-43.186,132.266,35.349,276.738,36.148,278.184c4.37,7.905,1.511,17.861-6.389,22.241
					C1220.277,3559.872,1217.554,3560.531,1214.871,3560.531z"/>
			</g>
			<g>
				<path style="fill:#371A45;" d="M2000.001,2851.972h-69.024c-5.93,0-11.396-3.208-14.287-8.384l-27.671-49.531h-124.541
					c-9.038,0-16.365-7.329-16.365-16.367s7.327-16.367,16.365-16.367h134.146c5.93,0,11.396,3.208,14.287,8.384l27.671,49.531
					h59.419c9.038,0,16.365,7.329,16.365,16.367S2009.039,2851.972,2000.001,2851.972z"/>
			</g>
			<g>
				
					<ellipse transform="matrix(0.1602 -0.9871 0.9871 0.1602 -1050.9778 3831.2625)" style="fill:#6C5D75;" cx="1726.066" cy="2533.269" rx="61.114" ry="61.114"/>
			</g>
			<g>
				
					<ellipse transform="matrix(0.9871 -0.1602 0.1602 0.9871 -376.4224 396.9548)" style="fill:#6C5D75;" cx="2273.935" cy="2533.269" rx="61.114" ry="61.114"/>
			</g>
			<g>
				<path style="fill:#371A45;" d="M2069.024,2851.972h-69.023c-9.038,0-16.365-7.329-16.365-16.367s7.327-16.367,16.365-16.367
					h59.419l27.671-49.531c2.891-5.176,8.357-8.384,14.287-8.384h134.143c9.038,0,16.365,7.329,16.365,16.367
					s-7.327,16.367-16.365,16.367h-124.539l-27.671,49.531C2080.421,2848.764,2074.954,2851.972,2069.024,2851.972z"/>
			</g>
			<g>
				<path style="fill:#371A45;" d="M1726.065,2610.751c-42.722,0-77.478-34.761-77.478-77.48s34.756-77.48,77.478-77.48
					c42.722,0,77.478,34.761,77.478,77.48S1768.787,2610.751,1726.065,2610.751z M1726.065,2488.525
					c-24.675,0-44.749,20.073-44.749,44.746s20.073,44.746,44.749,44.746s44.749-20.073,44.749-44.746
					S1750.74,2488.525,1726.065,2488.525z"/>
			</g>
			<g>
				<path style="fill:#371A45;" d="M1124.156,2182.099c-0.434,0-0.874-0.02-1.316-0.054c-9.009-0.718-15.732-8.604-15.015-17.612
					c1.946-24.453,14.031-147.617,60.945-170.869c51.909-25.728,147.202-59.744,374.102-57.603c1.894,0.017,3.769,0.364,5.544,1.023
					c50.84,18.865,59.426,113.21,60.237,123.904c0.684,9.014-6.067,16.875-15.08,17.559c-9.006,0.718-16.873-6.069-17.556-15.078
					c-2.043-26.431-13.66-82.92-36.729-94.704c-242.742-1.797-327.935,40.329-355.984,54.226
					c-22.285,11.045-38.745,92.539-42.852,144.141C1139.771,2175.6,1132.606,2182.099,1124.156,2182.099z"/>
			</g>
			<g>
				<path style="fill:#371A45;" d="M1123.519,3574.638c-35.828,0-79.184-5.649-125.967-23.843
					c-101.096-39.316-141.963-174.248-118.186-390.205c2.805-29.658,70.688-734.673,189.617-948.75
					c122.693-220.852,509.273-168.247,525.671-165.913c3.457,0.498,6.668,2.085,9.158,4.536
					c29.981,29.482,88.181,77.808,116.729,81.953c42.322,6.147,269.834,10.415,279.458,10.596
					c9.626-0.181,237.141-4.448,279.465-10.596c28.545-4.146,86.746-52.471,116.726-81.953c2.49-2.451,5.701-4.038,9.158-4.536
					c16.399-2.329,402.974-54.929,525.669,165.913c118.762,213.774,186.624,917.114,189.631,948.872
					c23.745,215.889-17.126,350.776-118.196,390.083c-120.996,47.056-219.094,10.229-223.215,8.638
					c-2.466-0.952-4.666-2.485-6.409-4.478c-6.289-7.173-154.758-176.899-219.424-280.366
					c-57.524-92.041-194.402-107.725-204.756-108.779h-697.297c-10.247,1.04-147.207,16.704-204.756,108.779
					c-64.663,103.467-213.132,273.193-219.421,280.366c-1.743,1.992-3.943,3.525-6.409,4.478
					C1218.238,3560.409,1180.352,3574.638,1123.519,3574.638z M2794.586,3530.107c17.727,5.649,99.504,27.705,196.003-9.819
					c108.354-42.139,112.834-216.914,97.512-356.113c-0.01-0.083-0.017-0.166-0.024-0.249
					c-0.688-7.256-70.056-728.076-185.674-936.187c-104.59-188.262-441.414-155.479-487.268-150.059
					c-18.594,17.817-86.912,80.723-130.967,87.129c-45.051,6.543-274.143,10.757-283.875,10.933c-0.195,0-0.396,0-0.591,0
					c-9.731-0.176-238.818-4.39-283.867-10.933c-44.058-6.401-112.375-69.312-130.969-87.129
					c-45.823-5.41-382.676-38.218-487.271,150.059c-115.632,208.135-184.983,928.931-185.671,936.187
					c-15.352,139.443-10.874,314.224,97.49,356.362c96.445,37.51,178.196,15.488,196.004,9.814
					c21.25-24.443,154.985-179.355,213.423-272.856c68.264-109.224,223.767-123.555,230.354-124.111
					c0.457-0.039,0.918-0.059,1.377-0.059h698.857c0.459,0,0.92,0.02,1.377,0.059c6.587,0.557,162.09,14.888,230.352,124.111
					C2639.598,3350.746,2773.336,3505.658,2794.586,3530.107z"/>
			</g>
			<g>
				<path style="fill:#371A45;" d="M2785.12,3560.536c-2.688,0-5.413-0.664-7.927-2.061c-7.903-4.385-10.754-14.346-6.367-22.246
					c0.791-1.436,79.329-145.908,36.14-278.174c-44.316-135.718-287.688-385.41-290.139-387.92
					c-6.323-6.455-6.211-16.816,0.247-23.14c6.458-6.313,16.819-6.216,23.142,0.249c10.237,10.454,251.199,257.739,297.864,400.654
					c47.683,146.025-35.088,297.822-38.635,304.209C2796.453,3557.499,2790.872,3560.536,2785.12,3560.536z"/>
			</g>
			<g>
				<path style="fill:#371A45;" d="M2273.934,2610.751c-42.722,0-77.478-34.761-77.478-77.48s34.756-77.48,77.478-77.48
					s77.48,34.761,77.48,77.48S2316.656,2610.751,2273.934,2610.751z M2273.934,2488.525c-24.675,0-44.749,20.073-44.749,44.746
					s20.073,44.746,44.749,44.746s44.751-20.073,44.751-44.746S2298.609,2488.525,2273.934,2488.525z"/>
			</g>
			<g style="opacity:0.3;">
				<circle style="fill:#371A45;" cx="2710.787" cy="2364.694" r="78.663"/>
			</g>
			<g style="opacity:0.3;">
				
					<ellipse transform="matrix(0.7071 -0.7071 0.7071 0.7071 -1028.6594 2539.3325)" style="fill:#371A45;" cx="2550.916" cy="2511.368" rx="81.208" ry="81.208"/>
			</g>
			<g style="opacity:0.3;">
				
					<ellipse transform="matrix(0.7071 -0.7071 0.7071 0.7071 -938.5781 2756.8081)" style="fill:#371A45;" cx="2858.473" cy="2511.368" rx="79.089" ry="79.089"/>
			</g>
			<g style="opacity:0.3;">
				
					<ellipse transform="matrix(0.7071 -0.7071 0.7071 0.7071 -1090.0845 2697.217)" style="fill:#371A45;" cx="2710.787" cy="2664.457" rx="78.663" ry="78.663"/>
			</g>
			<g>
				
					<ellipse transform="matrix(0.7071 -0.7071 0.7071 0.7071 -850.3928 2597.9336)" style="fill:#16DB12;" cx="2710.787" cy="2325.482" rx="78.663" ry="78.663"/>
			</g>
			<g>
				<circle style="fill:#F5C202;" cx="2550.916" cy="2472.155" r="81.208"/>
			</g>
			<g>
				
					<ellipse transform="matrix(0.1602 -0.9871 0.9871 0.1602 -39.6373 4897.7227)" style="fill:#F80440;" cx="2858.473" cy="2472.155" rx="79.089" ry="79.089"/>
			</g>
			<g>
				
					<ellipse transform="matrix(0.7071 -0.7071 0.7071 0.7071 -1062.3569 2685.7319)" style="fill:#6E6CFF;" cx="2710.787" cy="2625.244" rx="78.663" ry="78.663"/>
			</g>
			<g>
				<path style="fill:#371A45;" d="M2875.843,2182.094c-8.447,0-15.61-6.494-16.296-15.059
					c-4.922-61.548-22.705-134.16-42.854-144.146c-28.044-13.896-113.037-56.006-355.981-54.226
					c-23.069,11.782-34.683,68.274-36.726,94.714c-0.696,9.004-8.54,15.698-17.568,15.063c-9.006-0.693-15.752-8.545-15.068-17.554
					c0.811-10.693,9.395-105.039,60.234-123.904c1.775-0.659,3.65-1.006,5.544-1.023c226.899-2.041,322.195,31.88,374.102,57.603
					c46.917,23.252,58.999,146.416,60.945,170.869c0.718,9.009-6.003,16.89-15.012,17.612
					C2876.719,2182.079,2876.278,2182.094,2875.843,2182.094z"/>
			</g>
			<g>
				<path style="fill:#371A45;" d="M2710.787,2420.512c-52.397,0-95.027-42.632-95.027-95.029s42.629-95.029,95.027-95.029
					s95.027,42.632,95.027,95.029S2763.184,2420.512,2710.787,2420.512z M2710.787,2263.188c-34.351,0-62.297,27.944-62.297,62.295
					s27.947,62.295,62.297,62.295s62.297-27.944,62.297-62.295S2745.137,2263.188,2710.787,2263.188z"/>
			</g>
			<g>
				<path style="fill:#371A45;" d="M2550.916,2569.731c-53.801,0-97.573-43.774-97.573-97.573c0-53.804,43.772-97.578,97.573-97.578
					s97.573,43.774,97.573,97.578C2648.49,2525.956,2604.718,2569.731,2550.916,2569.731z M2550.916,2407.314
					c-35.754,0-64.844,29.087-64.844,64.844c0,35.752,29.089,64.839,64.844,64.839s64.844-29.087,64.844-64.839
					C2615.76,2436.401,2586.671,2407.314,2550.916,2407.314z"/>
			</g>
			<g>
				<path style="fill:#371A45;" d="M2858.472,2567.612c-52.634,0-95.454-42.822-95.454-95.454c0-52.637,42.82-95.459,95.454-95.459
					s95.454,42.822,95.454,95.459C2953.927,2524.789,2911.107,2567.612,2858.472,2567.612z M2858.472,2409.433
					c-34.585,0-62.725,28.135-62.725,62.725c0,34.585,28.14,62.72,62.725,62.72s62.725-28.135,62.725-62.72
					C2921.197,2437.568,2893.057,2409.433,2858.472,2409.433z"/>
			</g>
			<g>
				<path style="fill:#371A45;" d="M2710.787,2720.273c-52.397,0-95.027-42.632-95.027-95.029s42.629-95.029,95.027-95.029
					s95.027,42.632,95.027,95.029S2763.184,2720.273,2710.787,2720.273z M2710.787,2562.948c-34.351,0-62.297,27.944-62.297,62.295
					s27.947,62.295,62.297,62.295s62.297-27.944,62.297-62.295S2745.137,2562.948,2710.787,2562.948z"/>
			</g>
			<g>
				<path style="fill:#371A45;" d="M1317.494,2592.963c-45.996,0-83.418-37.427-83.418-83.423s37.422-83.418,83.418-83.418
					c45.996,0,83.418,37.422,83.418,83.418S1363.49,2592.963,1317.494,2592.963z M1317.494,2458.857
					c-27.949,0-50.688,22.734-50.688,50.684s22.739,50.688,50.688,50.688c27.949,0,50.688-22.739,50.688-50.688
					S1345.443,2458.857,1317.494,2458.857z"/>
			</g>
			<g>
				<path style="fill:#371A45;" d="M2364.766,2964.018c-45.999,0-83.42-37.422-83.42-83.418s37.422-83.423,83.42-83.423
					c45.996,0,83.418,37.427,83.418,83.423S2410.762,2964.018,2364.766,2964.018z M2364.766,2829.911
					c-27.952,0-50.691,22.739-50.691,50.688s22.739,50.684,50.691,50.684c27.949,0,50.688-22.734,50.688-50.684
					S2392.716,2829.911,2364.766,2829.911z"/>
			</g>
			<g>
				<path style="fill:#371A45;" d="M1758.411,2817.919c-13.755,0-26.789-3.501-38.958-10.479
					c-41.294-23.687-56.409-79.873-57.034-82.251c-2.288-8.745,2.944-17.686,11.687-19.976c8.743-2.314,17.666,2.93,19.968,11.655
					l0,0c0.122,0.449,12.393,45.469,41.751,62.231c11.482,6.558,24.055,7.773,38.44,3.75c8.696-2.456,17.734,2.637,20.176,11.343
					c2.439,8.701-2.639,17.734-11.343,20.171C1774.647,2816.733,1766.407,2817.919,1758.411,2817.919z"/>
			</g>
			<g>
				<path style="fill:#371A45;" d="M1695.943,3050.654c-0.166,0-0.332-0.005-0.5-0.01c-9.033-0.269-16.138-7.813-15.867-16.846
					c2.539-84.761,98.523-116.484,102.61-117.793c8.601-2.759,17.82,1.987,20.579,10.591c2.754,8.599-1.975,17.803-10.562,20.571
					c-0.947,0.308-78.071,26.152-79.912,87.607C1712.025,3043.642,1704.754,3050.654,1695.943,3050.654z"/>
			</g>
			<g>
				<path style="fill:#371A45;" d="M1559.429,3043.793c-8.074,0-15.098-5.972-16.201-14.189
					c-0.432-3.13-10.789-72.583-72.363-90.859c-8.665-2.573-13.604-11.68-11.033-20.347s11.687-13.618,20.344-11.03
					c82.234,24.404,94.993,114.106,95.496,117.915c1.184,8.96-5.12,17.183-14.08,18.369
					C1560.865,3043.744,1560.142,3043.793,1559.429,3043.793z"/>
			</g>
			<g>
				<path style="fill:#371A45;" d="M1484.2,2829.911c-7.224,0-13.835-4.819-15.796-12.129c-2.341-8.721,2.827-17.686,11.541-20.039
					c1.086-0.298,76.382-21.572,96.895-81.963c2.908-8.555,12.197-13.125,20.759-10.234c8.557,2.91,13.14,12.202,10.232,20.762
					c-26.238,77.246-115.589,102.026-119.38,103.042C1487.03,2829.731,1485.604,2829.911,1484.2,2829.911z"/>
			</g>
			<g style="opacity:0.3;">
				<path style="fill:#371A45;" d="M1475.521,2876.586c0,0,68.281,0,90.929,8.628c22.648,8.628,31.276,83.043,62.552,85.2
					s34.511-69.023,56.081-75.494s115.067-4.116,115.067-4.116s-21.239,148.039-171.148,143.483
					C1479.093,3029.731,1475.521,2876.586,1475.521,2876.586z"/>
			</g>
			<g style="opacity:0.3;">
				<path style="fill:#371A45;" d="M2201.009,2858.689h43.807c0,0,15.574,122.51,119.949,122.51s110.846-107.848,110.846-107.848
					h54.4c0,0-1.078,172.494-165.246,172.494S2201.009,2858.689,2201.009,2858.689z"/>
			</g>
			<g style="opacity:0.3;">
				<path style="fill:#371A45;" d="M2273.936,2242.978c-48.982,1.421-273.937,3.841-273.937,3.841s-224.951-2.42-273.934-3.841
					c-26.789-0.777-99.738-57.699-99.738-57.699c2.362,8.628,5.567,16.902,9.37,24.776c27.124,56.148,85.305,90.622,147.662,90.622
					h216.639h216.642c62.355,0,120.539-34.474,147.659-90.622c3.804-7.874,7.011-16.148,9.373-24.776
					C2373.674,2185.279,2300.725,2242.201,2273.936,2242.978z"/>
			</g>
			<g style="opacity:0.3;">
				<path style="fill:#371A45;" d="M1163.629,2127.76c0,0,13.129-70.351,23.914-80.831s52.486-30.612,134.451-42.116
					c0,0,26.603,15.818,44.577,15.818c17.975,0,150.988-7.255,166.805-6.863c15.818,0.392,26.603,41.766,26.603,41.766
					S1279.199,2049.39,1163.629,2127.76z"/>
			</g>
			<g style="opacity:0.3;">
				<path style="fill:#371A45;" d="M2839.939,2127.76c0,0-13.129-70.351-23.914-80.831s-52.486-30.612-134.451-42.116
					c0,0-26.603,15.818-44.577,15.818s-150.988-7.255-166.805-6.863c-15.818,0.392-26.603,41.766-26.603,41.766
					S2724.369,2049.39,2839.939,2127.76z"/>
			</g>
			<g style="opacity:0.4;">
				<ellipse style="fill:#FFFFFF;" cx="2547.87" cy="2447.889" rx="34.511" ry="21.57"/>
			</g>
			<g style="opacity:0.4;">
				<ellipse style="fill:#FFFFFF;" cx="2270.033" cy="2514.576" rx="17.831" ry="11.144"/>
			</g>
			<g style="opacity:0.4;">
				<ellipse style="fill:#FFFFFF;" cx="1726.066" cy="2514.576" rx="17.831" ry="11.144"/>
			</g>
			<g style="opacity:0.4;">
				<ellipse style="fill:#FFFFFF;" cx="2706.766" cy="2307.687" rx="34.511" ry="21.57"/>
			</g>
			<g style="opacity:0.4;">
				<ellipse style="fill:#FFFFFF;" cx="2706.766" cy="2599.596" rx="34.511" ry="21.57"/>
			</g>
			<g style="opacity:0.4;">
				<ellipse style="fill:#FFFFFF;" cx="2852.002" cy="2447.889" rx="34.512" ry="21.57"/>
			</g>
			<g style="opacity:0.4;">
				<path style="fill:#FFFFFF;" d="M2225.763,2817.27c0,0,46.543-61.114,139.748-61.114s141.377,50.491,141.377,50.491
					s-41.174-87.131-141.377-87.505C2265.307,2718.768,2225.763,2817.27,2225.763,2817.27z"/>
			</g>
			<g style="opacity:0.4;">
				<path style="fill:#FFFFFF;" d="M1173.882,2498.039c0,0,35.947-97.063,143.672-97.063s147.518,48.532,147.518,48.532
					s-43.195-96.628-162.878-93.071C1182.51,2359.993,1173.882,2498.039,1173.882,2498.039z"/>
			</g>
			<g>
				<path style="fill:#371A45;" d="M2364.766,3062.211c-100.142,0-181.611-81.47-181.611-181.611s81.47-181.616,181.611-181.616
					c100.139,0,181.609,81.475,181.609,181.616S2464.906,3062.211,2364.766,3062.211z M2364.766,2731.718
					c-82.092,0-148.882,66.787-148.882,148.882c0,82.09,66.79,148.877,148.882,148.877s148.879-66.787,148.879-148.877
					C2513.646,2798.505,2446.859,2731.718,2364.766,2731.718z"/>
			</g>
			<g style="opacity:0.3;">
				<path style="fill:#371A45;" d="M1163.629,2509.543h46.922c0,0,5.805,102.815,108.927,102.815
					c103.122,0,103.534-108.927,103.534-108.927h48.468c0,0-7.142,159.975-153.987,159.975S1163.629,2509.543,1163.629,2509.543z"/>
			</g>
			<g>
				<path style="fill:#371A45;" d="M1317.494,2679.775c-93.865,0-170.229-76.367-170.229-170.234
					c0-93.862,76.365-170.229,170.229-170.229c93.865,0,170.227,76.367,170.227,170.229
					C1487.72,2603.407,1411.358,2679.775,1317.494,2679.775z M1317.494,2372.045c-75.818,0-137.5,61.68-137.5,137.495
					c0,75.82,61.682,137.5,137.5,137.5c75.815,0,137.497-61.68,137.497-137.5
					C1454.991,2433.725,1393.309,2372.045,1317.494,2372.045z"/>
			</g>
		</g>
		<g>
			<g>
				<path style="fill:#FFFFFF;" d="M1659.315,1573.278c0,0-19.698-107.211,1.687-126.422s127.076-5.73,127.076-5.73v17.795
					l-107.848,125.643C1680.23,1584.564,1659.431,1585.719,1659.315,1573.278z"/>
			</g>
			<g>
				<path style="fill:#FFFFFF;" d="M2395.069,1797.025c0,0,41.032-28.826,36.324-38.825c-4.708-9.999-76.769-149.101-77.906-151.171
					c-1.138-2.07-16.449-4.096-17.991-3.123s-53.652,32.918-53.652,32.918l-10.066,16.404l7.849,38.311l10.844,8.801
					c0,0,32.881,1.412,57.063,36.107c24.182,34.695,32.786,57.703,32.786,57.703L2395.069,1797.025z"/>
			</g>
			<g>
				<path style="fill:#FFFFFF;" d="M2188.375,1373.541c0,0,244.456-140.922,314.917-241.58c0,0-37.387-112.162,8.628-148.112
					c46.015-35.949,79.089,10.066,79.089,10.066s31.006-63.373,92.031-73.337c70.461-11.504,215.697,44.577,94.906,263.15
					c-120.79,218.573-385.378,388.254-510.482,461.591l14.38,54.643c0,0,70.461,1.438,90.593,92.031
					c20.132,90.593,18.694,152.426,18.694,152.426s51.767,17.256,56.081,53.205c4.314,35.949,2.157,59.676,2.157,59.676
					s-48.172,0-81.246,33.792s-42.42,61.833-42.42,61.833h-124.385c0,0-44.577,0-50.329-77.651c0,0-53.205,94.906-297.661,66.147
					l21.57,158.177c0,0,15.818,100.658-99.22,130.856c-115.038,30.198-212.821,46.015-228.638-24.446
					c-15.818-70.461,70.461-87.717,70.461-87.717s-58.957-146.674-18.694-281.844c0,0-28.678-64.709-53.704-72.258
					c-25.026-7.549-131.795-12.942-131.795-12.942s-30.197-63.63,8.628-91.671c38.825-28.041,105.691-2.157,105.691-2.157
					s103.514-248.1,280.386-410.591C1808.01,1446.829,2045.923,1473.089,2188.375,1373.541z"/>
			</g>
			<g style="opacity:0.2;">
				<path style="fill:#371944;" d="M1434.336,1952.238c0,0,4.853-27.413,35.051-33.884c30.198-6.471,122.947,26.782,137.327,9.527
					s36.668-112.162,94.906-227.2c58.238-115.038,98.861-145.236,98.861-145.236s-32.314,85.902-47.972,120.961
					s-27.521,68.312-27.521,68.312s-9.047,0.017-18.334,16.177c-9.288,16.16-3.775,26.962-3.775,26.962l120.79-4.119l3.235,22.453
					c0,0-9.167,18.334-14.02,19.413c-4.853,1.078-66.866,8.987-69.023,10.965c-2.157,1.977-24.266,11.684-24.266,11.684
					l-7.302,79.808l-12.111,21.57c0,0-30.998,3.699-51.628,15.331c-20.63,11.631-40.181,46.126-41.191,48.245
					c-1.01,2.119-24.494-2.241-25.347-4.978c-0.853-2.737-9.381-28.392-30.269-40.799
					C1530.86,1955.023,1434.336,1952.238,1434.336,1952.238z"/>
			</g>
			<g style="opacity:0.2;">
				<path style="fill:#371944;" d="M1545.168,2386.975c0,0,38.538,26.943,112.953,15.079s127.261-34.511,136.967-75.494
					c9.706-40.982-35.59-309.524-69.023-337.565c-33.433-28.041-67.592-28.753-67.592-28.753s30.251-1.368,47.843-21.538
					c17.592-20.17,13.278-90.451,13.278-90.451l19.413-11.684l79.268-4.428l16.53,13.608c0,0-7.331,35.28,45.123,37.554
					c52.454,2.274,238.828-7.741,238.828-7.741l8.578-0.672c0,0,11.363,25.31,11.363,32.859c0,7.549,5.959,119.187,5.959,119.187
					s-46.875,59.122-125.964,74.221c-79.089,15.099-167.524,2.876-167.524,2.876s-6.72,24.055,0,47.453
					c6.72,23.399,33.123,162.171,16.561,204.033c-16.561,41.862-58.226,74.116-141.665,87.133
					C1642.627,2455.669,1555.521,2474.351,1545.168,2386.975z"/>
			</g>
			<g style="opacity:0.2;">
				<path style="fill:#371944;" d="M2407.667,2065.831c0,0-156.38,47.189-183.342,9.443c-26.962-37.747,0-308.806-22.648-319.95
					s-50.163,11.606-50.163,11.606s-18.86,101.275-17.781,169.22c1.078,67.944,18.633,172.13,33.851,195.245
					c15.219,23.115,147.078,21.131,154.883,16.138s21.154-31.395,37.336-47.521S2407.667,2065.831,2407.667,2065.831z"/>
			</g>
			<g style="opacity:0.3;">
				<path style="fill:#371A45;" d="M2308.54,1620.693c0,0,81.056,132.653,80.924,134.271s-21.139,14.61-21.139,14.61
					s-23.873-48.644-47.027-58.324c-23.155-9.68-29.363-10.782-29.363-10.782s-14.505-17.277-15.66-21.668
					s-4.497-20.541-4.497-23.057s6.112-20.132,7.909-21.57C2281.484,1632.736,2308.54,1620.693,2308.54,1620.693z"/>
			</g>
			<g style="opacity:0.2;">
				<path style="fill:#371944;" d="M2201.447,1524.23c0,0,57.389,24.744,102.685,7.489
					c45.296-17.256,255.241-165.367,380.345-316.355s92.031-263.15,92.031-263.15s91.718,38.716,11.347,212.766
					c-80.37,174.05-313.213,342.943-313.213,342.943l-175.902,118.702c0,0-16.717,13.211-35.86-3.505
					C2243.737,1606.403,2201.447,1524.23,2201.447,1524.23z"/>
			</g>
			<g style="opacity:0.3;">
				<path style="fill:#371A45;" d="M1691.468,1571.472c-0.571,0.665-2.61-79.118,6.557-90.442
					c9.167-11.324,77.022-6.927,77.022-6.927L1691.468,1571.472z"/>
			</g>
			<g style="opacity:0.2;">
				<path style="fill:#371944;" d="M1839.846,1765.21c0,0,14.02,49.61,42.061,59.317c28.041,9.706,261.195,0,261.195,0
					s4.144,24.162,0,25.884s-23.389,21.57-32.017,22.109c-8.628,0.539-208.686,23.187-249.13,6.471
					S1839.846,1765.21,1839.846,1765.21z"/>
			</g>
			<g>
				<path style="fill:#371A45;" d="M1629.398,2471.132c-25.92,0-47.463-4.37-64.199-14.551
					c-17.131-10.425-28.201-26.323-32.9-47.261c-5.061-22.549-1.846-42.876,9.556-60.425c14.6-22.461,39.456-34.609,55.989-40.552
					c-13.97-41.484-46.462-158.188-15.103-270.703c-12.639-26.924-31.675-55.874-42.002-58.989
					c-17.061-5.146-86.011-10.186-128.193-12.314c-5.552-0.281-10.503-3.589-12.886-8.611c-1.453-3.062-35.032-75.396,13.43-110.396
					c33.652-24.304,82.441-15.127,106.14-8.474c23.877-53.484,122.124-259.434,278.562-403.154
					c3.208-2.949,7.537-4.368,11.873-3.889c2.327,0.254,234.016,24.419,370.058-70.654c0.359-0.252,0.728-0.486,1.106-0.706
					c2.368-1.365,232.766-134.849,305.779-231.245c-8.494-28.662-31.033-120.508,16.013-157.263
					c17.173-13.416,35.024-18.901,53.101-16.323c13.293,1.904,24.221,8.018,32.236,14.192
					c14.878-21.628,45.569-56.458,92.649-64.146c42.217-6.887,102.72,7.092,135.83,54.082
					c26.221,37.205,43.12,107.532-25.269,231.284c-109.246,197.685-333.45,359.155-506.187,461.494l8.84,33.591
					c30.53,5.686,77.598,31.66,93.362,102.595c15.706,70.676,18.547,123.857,19.001,145.505
					c17.627,7.966,51.951,27.664,56.025,61.604c4.451,37.104,2.297,61.807,2.202,62.842c-0.706,7.783-7.231,13.74-15.044,13.74
					c-0.371,0-42.422,0.615-70.449,29.253c-29.834,30.479-38.826,55.864-38.914,56.118c-2.102,6.089-7.861,10.254-14.304,10.254
					h-124.385c-2.075,0-44.724-0.786-60.364-60.161c-33.823,27.563-110.776,65.806-270.054,50.615l18.965,139.072
					c0.134,0.835,16.426,114.229-110.352,147.505C1720.098,2460.663,1669.51,2471.132,1629.398,2471.132z M1423.736,1936.679
					c28.103,1.575,103.42,6.318,125.728,13.047c29.38,8.865,55.764,63.935,63.152,80.601c1.458,3.291,1.694,6.987,0.667,10.434
					c-38.228,128.34,17.666,270.483,18.237,271.904c1.667,4.165,1.399,8.867-0.737,12.813c-2.139,3.95-5.918,6.743-10.322,7.627
					c-0.337,0.068-37.566,7.954-53.335,32.354c-6.846,10.596-8.596,22.773-5.349,37.241c2.915,12.983,8.994,21.904,19.126,28.071
					c35.608,21.665,116.504,4.614,190.94-14.927c100.671-26.426,88.691-110.342,88.13-113.901l-21.614-158.481
					c-0.63-4.629,0.916-9.292,4.19-12.622c3.271-3.33,7.896-4.961,12.544-4.424c228.933,26.948,282.305-57.842,282.817-58.701
					c3.376-5.659,10.078-8.574,16.499-7.056c6.414,1.514,11.157,6.924,11.646,13.496c4.541,61.309,34.368,63.604,35.635,63.672
					l114.082-0.01c5.857-12.1,18.284-33.511,41.558-57.29c25.625-26.182,58.711-34.482,77.454-37.114
					c0.085-9.936-0.32-25.249-2.571-43.989c-2.59-21.587-34.783-36.982-45.857-40.674c-6.292-2.097-10.479-8.052-10.325-14.683
					c0.012-0.593,1.099-61.335-18.337-148.799c-17.151-77.18-73.865-80.117-76.272-80.205c-6.655-0.242-12.49-4.817-14.185-11.255
					l-14.38-54.644c-1.724-6.553,1.125-13.452,6.97-16.877c170.708-100.071,396.875-260.391,504.897-455.867
					c48.147-87.122,57.49-156.025,27.019-199.265c-27.366-38.836-78.552-46.211-106.267-41.667
					c-52.354,8.547-80.632,64.534-80.911,65.098c-2.354,4.751-7.031,7.937-12.314,8.369c-5.273,0.442-10.413-1.917-13.506-6.223
					c-0.056-0.073-11.26-15.012-27.502-17.229c-9.529-1.296-19.646,2.148-30.022,10.252c-30.615,23.918-12.39,104.941-3.594,131.438
					c1.506,4.531,0.781,9.519-1.958,13.43c-70.544,100.779-302.91,236.269-319.18,245.679
					c-133.389,92.793-341.802,79.861-383.181,76.216c-169.319,158.367-270.728,398.296-271.741,400.723
					c-3.154,7.559-11.753,11.223-19.395,8.269c-16.506-6.333-65.139-18.64-91.392,0.315
					C1409.407,1887.258,1418.192,1921.113,1423.736,1936.679z"/>
			</g>
			<g>
				<path style="fill:#371A45;" d="M1712.418,1958.447c-0.278,0-0.557-0.01-0.837-0.029c-6.939-0.457-12.193-6.45-11.736-13.389
					l6.87-104.426c-6.982-9.307-21.997-32.603-21.997-60.833c0-32.983,21.001-46.44,32.104-48.95
					c0.911-0.205,1.841-0.308,2.773-0.308h98.14c2.383-15.515,8.032-39.087,20.933-48.594c3.535-2.605,12.925-9.521,151.035-14.041
					c31.86-1.042,136.865-3.999,150.427,1.821c18.425,7.896,24.475,50.557,26.304,84.956c0.369,6.943-4.958,12.869-11.899,13.24
					c-7.036,0.376-12.871-4.958-13.242-11.899c-1.487-27.788-6.833-56.387-11.68-63.152c-29.6-5.159-253.45,2.822-276.682,9.934
					c-4.968,5.071-10.088,25.459-11.511,41.431c-0.576,6.494-6.018,11.479-12.539,11.479h-107.351
					c-2.886,1.223-11.636,6.389-11.636,24.082c0,26.277,18.96,48.262,19.153,48.482c2.193,2.51,3.33,5.818,3.11,9.143l-7.19,109.287
					C1724.53,1953.339,1718.993,1958.447,1712.418,1958.447z M1852.149,1703.046c0,0,0,0,0,0.002
					C1852.149,1703.046,1852.149,1703.046,1852.149,1703.046z M2128.992,1692.097L2128.992,1692.097
					C2128.992,1692.094,2128.992,1692.097,2128.992,1692.097z"/>
			</g>
			<g>
				<path style="fill:#371A45;" d="M2138.687,1927.885c-2.051,0-4.131-0.503-6.055-1.563c-6.089-3.35-8.313-10.994-4.966-17.085
					c2.214-4.031,55.22-98.967,139.644-117.622c40.518-8.965,81.057,1.179,120.461,30.122c5.605,4.116,6.812,11.995,2.695,17.598
					c-4.119,5.608-11.997,6.812-17.598,2.695c-33.276-24.441-66.934-33.147-100.037-25.85
					c-73.24,16.118-122.615,104.299-123.105,105.188C2147.432,1925.531,2143.126,1927.885,2138.687,1927.885z"/>
			</g>
			<g>
				<path style="fill:#371A45;" d="M2388.373,1959.27c-27.18-2.781-55.629-0.23-81.166,9.939
					c-17.128,6.909-28.323,17.007-46.708,24.877c-0.998,0.54-2.289-0.443-1.978-1.554c3.169-13.249,11.016-24.806,21.494-32.976
					c28.169-24.034,66.572-34.51,103.207-31.483c3.491,0.293,6.542,0.744,10.664,1.493c8.199,1.49,13.638,9.344,12.147,17.544
					C2404.553,1955.408,2396.523,1960.744,2388.373,1959.27L2388.373,1959.27z"/>
			</g>
			<g>
				<path style="fill:#371A45;" d="M1922.64,1898.178c-19.646,0-35.657-0.718-45.066-2.51l-1.277-0.242
					c-55.349-10.525-57.192-22.788-60.003-152.053c-0.151-6.951,5.361-12.708,12.312-12.859c6.931-0.154,12.708,5.361,12.859,12.312
					c1.274,58.652,2.493,95.447,8.63,111.833c3.816,10.19,7.803,11.638,30.906,16.033l1.284,0.244
					c35.759,6.809,197.078-4.607,256.218-9.583c6.919-0.627,13.015,4.561,13.599,11.489c0.583,6.926-4.561,13.015-11.489,13.599
					C2133.58,1887.035,2000.008,1898.178,1922.64,1898.178z"/>
			</g>
			<g>
				<path style="fill:#371A45;" d="M1719.586,1849.157c-6.726,0-12.305-5.315-12.568-12.097
					c-0.274-6.946,5.139-12.798,12.087-13.069l113.237-4.426c6.926-0.339,12.798,5.137,13.069,12.087
					c0.274,6.946-5.139,12.798-12.087,13.069l-113.237,4.426C1719.92,1849.155,1719.752,1849.157,1719.586,1849.157z"/>
			</g>
			<g>
				<path style="fill:#371A45;" d="M1979.84,1894.279c-5.364,0-9.822-4.228-10.054-9.639l-3.291-76.521
					c-47.668-18.257-48.997-21.594-50.667-25.779c-0.762-1.909-0.918-4.133-0.474-6.182c0.652-6.255,0.364-52.163-0.249-92.739
					c-0.083-5.562,4.358-10.137,9.919-10.222c5.427-0.139,10.139,4.358,10.222,9.919c0.842,56.03,0.774,79.722,0.317,90.261
					c8.21,4.058,27.612,11.963,44.272,18.267c3.767,1.426,6.323,4.961,6.497,8.987l3.574,83.145
					c0.239,5.557-4.072,10.254-9.629,10.493C1980.133,1894.277,1979.986,1894.279,1979.84,1894.279z M1935.235,1778.417
					c-0.188,1.858-0.4,2.807-0.628,3.45C1935.059,1780.676,1935.243,1779.514,1935.235,1778.417z M1916.109,1773.952
					c-0.308,0.635-0.498,1.208-0.613,1.638C1915.653,1775.021,1915.855,1774.472,1916.109,1773.952z"/>
			</g>
			<g>
				
					<ellipse transform="matrix(0.2298 -0.9732 0.9732 0.2298 -128.8657 3361.4795)" style="fill:#5DD2FF;" cx="2059.272" cy="1762.154" rx="34.871" ry="34.871"/>
			</g>
			<g>
				<path style="fill:#371A45;" d="M2059.273,1807.097c-24.78,0-44.941-20.161-44.941-44.941c0-24.783,20.161-44.944,44.941-44.944
					c24.78,0,44.941,20.161,44.941,44.944C2104.215,1786.935,2084.053,1807.097,2059.273,1807.097z M2059.273,1737.353
					c-13.674,0-24.8,11.125-24.8,24.802c0,13.674,11.125,24.8,24.8,24.8s24.8-11.126,24.8-24.8
					C2084.073,1748.478,2072.948,1737.353,2059.273,1737.353z"/>
			</g>
			<g>
				<path style="fill:#371A45;" d="M1719.647,1739.88c10.071-38.534,23.38-75.832,38.902-112.446
					c16.271-36.174,31.231-73.731,58.813-103.241c0.716-0.766,2.148-0.038,1.826,1.031c-4.928,19.675-12.271,37.558-19.512,55.629
					c-14.476,36.076-26.97,72.909-38.773,109.93c-4.425,13.863-12.919,41.762-16.975,55.74
					C1738.964,1761.971,1716.073,1755.764,1719.647,1739.88L1719.647,1739.88z"/>
			</g>
			<g>
				<path style="fill:#371A45;" d="M2253.512,1651.11c-16.327-35.395-34.19-75.67-52.911-109.628
					c-6.743-11.75-12.877-23.603-17.126-38.054c-0.232-0.73,0.182-1.517,0.92-1.732c14.276,5.364,24.777,17.146,33.677,28.14
					c25.938,33.662,47.437,70.18,63.345,109.691c3.033,7.775-0.81,16.535-8.583,19.568
					C2265.259,1662.059,2256.738,1658.459,2253.512,1651.11L2253.512,1651.11z"/>
			</g>
			<g>
				<path style="fill:#371A45;" d="M2550.755,1459.572c-0.903,0-1.819-0.098-2.737-0.3
					c-140.691-31.194-173.228-206.887-174.543-214.353c-1.206-6.843,3.359-13.364,10.203-14.575
					c6.829-1.211,13.374,3.35,14.59,10.195c0.295,1.663,31.028,166.621,155.2,194.153c6.787,1.504,11.069,8.228,9.565,15.015
					C2561.732,1455.575,2556.527,1459.572,2550.755,1459.572z"/>
			</g>
			<g>
				<path style="fill:#371A45;" d="M1712.298,1759.133c-1.24,0-2.5-0.185-3.747-0.574c-52.864-16.458-91.299-77.359-92.908-79.941
					c-3.677-5.901-1.875-13.665,4.026-17.341c5.903-3.679,13.662-1.873,17.339,4.021c0.498,0.791,35.264,55.598,79.028,69.224
					c6.638,2.065,10.344,9.124,8.276,15.762C1722.635,1755.673,1717.662,1759.133,1712.298,1759.133z"/>
			</g>
			<g>
				<path style="fill:#371A45;" d="M1535.708,1844.658c12.547,7.194,23.427,16.028,33.817,25.913
					c10.298,11.13,22.995,19.687,23.74,37.051c0.018,0.923-0.716,1.685-1.639,1.702c-16.653-1.373-25.086-10.584-38.323-17.581
					c-11.474-6.832-23.313-13.899-33.999-21.736C1504.366,1858.545,1519.243,1835.735,1535.708,1844.658L1535.708,1844.658z"/>
			</g>
			<g>
				<path style="fill:#371A45;" d="M1838.611,2144.832c-8.695-30.625-18.007-65.403-29.589-94.9
					c-4.275-10.225-7.919-20.455-9.556-33.265c-0.168-1.078,1.055-1.966,2.024-1.46c11.788,5.663,19.834,15.107,26.184,25.084
					c12.62,19.994,22.844,41.347,30.636,63.623c3.934,11.141,7.264,22.128,9.733,34.095c1.685,8.173-3.575,16.163-11.747,17.849
					C1848.36,2157.504,1840.592,2152.556,1838.611,2144.832L1838.611,2144.832z"/>
			</g>
			<g>
				<path style="fill:#371A45;" d="M1585.216,2171.967c-4.585,0-9.004-2.51-11.228-6.875c-3.154-6.191-0.703-13.765,5.483-16.924
					c5.359-2.734,132.832-66.563,275.044-27.388c6.702,1.851,10.64,8.779,8.792,15.483c-1.848,6.699-8.777,10.635-15.481,8.794
					c-132.539-36.538-255.681,24.907-256.909,25.537C1589.088,2171.523,1587.137,2171.967,1585.216,2171.967z"/>
			</g>
			<g>
				<path style="fill:#371A45;" d="M1614.686,2303.45c20.247-4.538,40.69-7.057,61.331-8.667
					c21.402-0.637,42.248-5.563,62.922,4.637c0.968,0.484,1.048,1.929,0.137,2.513c-9.758,6.757-19.382,9.933-29.319,12.158
					c-28.768,6.78-60.444,14.805-89.528,19.055C1601.193,2335.475,1596.155,2308.146,1614.686,2303.45L1614.686,2303.45z"/>
			</g>
			<g>
				<path style="fill:#371A45;" d="M2376.043,1824.069c-5.212,0-10.283-2.703-13.083-7.537c-4.182-7.219-1.721-16.46,5.496-20.645
					c20.981-12.163,41.785-27.541,47.229-34.709c-6.15-17.961-45.022-92.104-81.36-157.617c-4.048-7.295-1.414-16.489,5.884-20.537
					c7.29-4.045,16.492-1.411,20.537,5.884c56.902,102.583,85.754,160.872,85.754,173.247c0,5.798,0,23.447-62.9,59.875
					C2381.217,1823.412,2378.612,1824.069,2376.043,1824.069z M2416.734,1759.531L2416.734,1759.531
					C2416.737,1759.531,2416.734,1759.531,2416.734,1759.531z"/>
			</g>
			<g>
				<path style="fill:#371A45;" d="M1663.529,1630.69c-7.583,0-14.121-5.698-14.993-13.413
					c-1.501-13.311-14.48-131.025-7.756-165.391c5.825-29.785,53.462-30.903,94.321-28.564c37.712,2.17,73.948,8.357,75.471,8.618
					c8.223,1.416,13.74,9.226,12.327,17.449c-1.413,8.22-9.224,13.723-17.449,12.327c-62.185-10.691-124.561-12.004-135.21-2.981
					c-4.509,26.75,4.436,120.732,8.32,155.154c0.935,8.291-5.027,15.769-13.318,16.706
					C1664.666,1630.658,1664.095,1630.69,1663.529,1630.69z"/>
			</g>
			<g>
				<path style="fill:#371A45;" d="M2605.165,988.641c7.861,18.066,12.369,37.321,16.173,56.611
					c1.348,6.458,1.698,13.286-1.829,21.56c-0.385,0.911-1.472,1.315-2.357,0.878c-14.645-7.398-17.638-20.06-24.98-32.451
					c-5.979-11.626-11.469-23.545-15.319-36.052C2571.777,981.097,2597.257,971.716,2605.165,988.641L2605.165,988.641z"/>
			</g>
			<g>
				<path style="fill:#371A45;" d="M2150.968,2090.38c-7.205,0-13.582-5.171-14.863-12.51
					c-1.064-6.104-25.806-151.081-2.886-294.206c4.873-30.432,21.899-57.61,46.716-74.57l0.95-0.649
					c35.203-23.826,98.403-23.665,101.079-23.586c8.342,0.066,15.051,6.882,14.985,15.225c-0.063,8.301-6.816,14.988-15.103,14.988
					c-0.037,0-0.073,0-0.112-0.002l0,0c-15.498-0.02-61.165,2.998-83.87,18.367l-0.869,0.596
					c-18.01,12.307-30.376,32.136-33.943,54.409c-22.102,137.998,2.566,282.795,2.817,284.241c1.431,8.218-4.072,16.04-12.29,17.476
					C2152.703,2090.307,2151.829,2090.38,2150.968,2090.38z"/>
			</g>
			<g>
				<path style="fill:#371A45;" d="M1598.807,2051.528c-1.335,0-2.688-0.176-4.036-0.552c-8.018-2.227-12.734-10.488-10.537-18.511
					c8.23-30.09,41.875-86.829,111.675-97.927l8.21-94.365c0.723-8.311,8.081-14.448,16.358-13.74
					c8.313,0.723,14.463,8.047,13.74,16.357l-9.277,106.641c-0.642,7.39-6.555,13.22-13.953,13.757
					c-76.553,5.566-96.802,74.375-97.627,77.3C1611.483,2047.153,1605.411,2051.528,1598.807,2051.528z"/>
			</g>
		</g>
		<g style="opacity:0.3;">
			<path style="fill:#371A45;" d="M1732.959,1460.538c0,0,96.356,76.572,251.261,58.238s241.722-140.203,241.722-140.203
				s-60.934-15.099-114.858-2.157s-125,13.236-182.751,25.492c-57.751,12.255-153.786,23.04-170.992,37.06
				C1740.136,1452.989,1732.959,1460.538,1732.959,1460.538z"/>
		</g>
		<g>
			<g>
				<path style="fill:#FFFFFF;" d="M1357.176,892.841l10.365-2.09c5.32-1.073,10.503,2.371,11.575,7.691l61.547,305.263
					c1.073,5.32-2.371,10.503-7.691,11.575l-10.365,2.09c-55.815,11.253-110.184-24.871-121.438-80.686l-24.68-122.406
					C1265.237,958.464,1301.361,904.094,1357.176,892.841z"/>
				<path style="fill:#371944;" d="M1402.012,1222.121c-20.608,0.002-40.764-6.042-58.32-17.707
					c-23.533-15.635-39.57-39.502-45.154-67.2l-24.68-122.405c-11.526-57.178,25.61-113.071,82.788-124.6l0.53,2.632l-0.53-2.632
					l10.366-2.09c3.267-0.662,6.609-0.007,9.395,1.843c2.783,1.851,4.68,4.673,5.342,7.947l61.548,305.266
					c0.659,3.276,0.005,6.614-1.846,9.397c-1.848,2.783-4.673,4.68-7.949,5.339l-10.364,2.09
					C1416.102,1221.42,1409.029,1222.121,1402.012,1222.121z M1369.488,893.242c-0.466,0-0.94,0.046-1.414,0.142l-10.369,2.09
					c-26.292,5.3-48.945,20.523-63.787,42.861c-14.844,22.339-20.098,49.121-14.797,75.415l24.68,122.405
					c5.3,26.292,20.522,48.945,42.861,63.789c22.339,14.844,49.116,20.102,75.415,14.795l10.364-2.09
					c1.87-0.376,3.481-1.46,4.539-3.049c1.055-1.587,1.428-3.494,1.052-5.364l-61.548-305.264
					C1375.802,895.585,1372.816,893.242,1369.488,893.242z"/>
			</g>
			<g style="opacity:0.2;">
				<path style="fill:#371944;" d="M1423.533,1118.613l16.964,84.187c1.179,5.815-2.619,11.486-8.433,12.666
					c-32.041,6.445-63.674-1.358-88.264-19.092c-22.207-16.015-38.673-40.155-44.521-69.136l-8.794-43.604
					c25.04,34.762,69.02,53.63,113.775,44.615l11.074-2.235C1419.373,1125.191,1422.359,1122.264,1423.533,1118.613z"/>
			</g>
			<g>
				<path style="fill:#371944;" d="M1401.988,1234.384c-22.996,0-45.488-6.743-65.078-19.761
					c-26.262-17.449-44.155-44.08-50.388-74.985l-24.68-122.405c-12.861-63.804,28.579-126.177,92.38-139.041l2.954,14.648
					l-2.954-14.648l10.366-2.09c13.391-2.703,26.472,5.991,29.175,19.382l61.55,305.266c1.306,6.489,0.01,13.093-3.652,18.604
					c-3.662,5.513-9.25,9.267-15.74,10.574l-10.359,2.09C1417.711,1233.6,1409.818,1234.384,1401.988,1234.384z M1365.482,906.41
					l-5.351,1.079c-47.649,9.604-78.599,56.187-68.992,103.836l24.68,122.405c4.653,23.083,18.015,42.971,37.629,56.003
					c19.612,13.027,43.125,17.644,66.206,12.988l5.352-1.079L1365.482,906.41z"/>
			</g>
			<g>
				<path style="fill:#FFFFFF;" d="M2388.417,715.568l-10.468,1.491c-5.373,0.766-9.108,5.742-8.343,11.115l43.924,308.293
					c0.766,5.373,5.742,9.108,11.115,8.343l10.468-1.491c56.369-8.031,95.554-60.237,87.523-116.606l-17.613-123.621
					C2496.993,746.723,2444.786,707.537,2388.417,715.568z"/>
				<path style="fill:#371944;" d="M2423.255,1047.594c-6.125,0-11.492-4.514-12.383-10.75l-43.923-308.291
					c-0.974-6.829,3.792-13.176,10.623-14.153l10.469-1.492c27.976-3.984,55.823,3.159,78.418,20.125
					c22.598,16.96,37.236,41.706,41.223,69.68l17.615,123.621c8.225,57.744-32.061,111.414-89.805,119.643l-10.466,1.492
					C2424.432,1047.553,2423.839,1047.594,2423.255,1047.594z M2388.797,718.227l-10.469,1.492c-3.899,0.554-6.619,4.18-6.062,8.079
					l43.923,308.291c0.557,3.901,4.199,6.619,8.079,6.064l10.466-1.492c54.812-7.81,93.054-58.757,85.244-113.569l-17.615-123.621
					c-3.782-26.553-17.678-50.044-39.128-66.143C2441.785,721.227,2415.352,714.44,2388.797,718.227z"/>
			</g>
			<g style="opacity:0.2;">
				<path style="fill:#371944;" d="M2401.264,950.539l12.123,85.019c0.83,5.875,6.304,9.953,12.178,9.123
					c32.354-4.624,59.566-22.543,76.823-47.47c15.584-22.511,23.044-50.764,18.879-80.034l-6.272-44.037
					c-11.994,41.128-47.149,73.6-92.345,80.047l-11.184,1.591C2407.381,955.351,2403.589,953.589,2401.264,950.539z"/>
			</g>
			<g>
				<path style="fill:#371944;" d="M2423.25,1059.853c-12.126,0-22.751-8.935-24.512-21.277l-43.923-308.294
					c-1.929-13.518,7.502-26.086,21.025-28.015l10.471-1.492c31.204-4.456,62.288,3.528,87.505,22.454
					c25.217,18.928,41.553,46.543,45.999,77.756l17.615,123.621c9.18,64.434-35.774,124.324-100.21,133.506l-10.464,1.492
					C2425.577,1059.772,2424.407,1059.853,2423.25,1059.853z M2385.123,731.132l42.48,298.164l5.4-0.769
					c48.123-6.858,81.697-51.584,74.841-99.707L2490.23,805.2c-3.32-23.311-15.52-43.933-34.353-58.069
					c-18.833-14.138-42.041-20.093-65.352-16.77L2385.123,731.132z"/>
			</g>
			<g>
				<circle style="fill:#FFFFFF;" cx="1900.242" cy="952.208" r="527.525"/>
				<path style="fill:#371944;" d="M1899.869,1482.458c-262.505,0-491.133-195.469-525.503-462.588
					c-37.31-289.968,168.245-556.228,458.215-593.538c140.466-18.061,279.563,19.639,391.665,106.182
					c112.104,86.543,183.799,211.565,201.873,352.031c18.071,140.466-19.636,279.563-106.182,391.667
					c-86.545,112.105-211.567,183.799-352.034,201.873C1945.057,1481.025,1922.323,1482.458,1899.869,1482.458z M1901.317,427.282
					c-22.576,0-45.29,1.448-68.052,4.377c-287.031,36.931-490.505,300.493-453.572,587.527
					c34.018,264.395,260.354,457.893,520.178,457.9c22.244,0.002,44.714-1.416,67.349-4.329
					c287.031-36.931,490.505-300.496,453.572-587.529c-17.888-139.043-88.855-262.798-199.827-348.467
					C2128.162,465.119,2016.661,427.282,1901.317,427.282z"/>
			</g>
			<g style="opacity:0.2;">
				<path style="fill:#371944;" d="M2409.121,813.107c6.376,23.229,11.174,47.188,14.344,71.785
					c37.139,288.959-166.958,553.342-455.907,590.548c-288.959,37.14-553.341-166.958-590.547-455.907
					c-1.075-8.309-1.951-16.651-2.607-24.891c68.044,250.156,311.814,418.13,576.204,384.121
					C2231.247,1342.631,2431.807,1092.226,2409.121,813.107z"/>
			</g>
			<g>
				<path style="fill:#371944;" d="M1899.859,1494.716c-268.572,0-502.485-199.988-537.649-473.281
					c-38.174-296.672,172.134-569.087,468.806-607.258c143.701-18.494,286.023,20.088,400.72,108.633
					c114.697,88.547,188.047,216.458,206.538,360.171s-20.088,286.025-108.635,400.723
					c-88.545,114.697-216.458,188.047-360.171,206.538C1946.092,1493.249,1922.833,1494.716,1899.859,1494.716z M1901.292,439.54
					c-22.051,0-44.233,1.416-66.462,4.275c-135.796,17.473-256.66,86.782-340.33,195.159
					c-83.667,108.379-120.124,242.852-102.651,378.648c33.225,258.22,254.275,447.2,508.032,447.207
					c21.724,0.002,43.667-1.382,65.774-4.226c135.796-17.473,256.66-86.782,340.329-195.161
					c83.667-108.379,120.125-242.852,102.651-378.647s-86.782-256.66-195.161-340.327
					C2122.84,476.493,2013.941,439.54,1901.292,439.54z"/>
			</g>
			<g>
				<path style="fill:#371944;" d="M2423.51,898.541c14.719,102.174-4.783,201.811-50.201,288.467
					c-34.05,64.966-194.03,193.127-409.617,226.164c-199.896,30.632-397.379-49.85-448.381-102.565
					c-68.03-70.313-114.862-160.394-129.58-262.568c-38.95-270.383,177.206-415.936,463.793-457.221
					S2384.561,628.159,2423.51,898.541z"/>
			</g>
			<g style="opacity:0.5;">
				
					<ellipse transform="matrix(0.0362 -0.9993 0.9993 0.0362 1282.6686 3102.1516)" style="fill:#FFFFFF;" cx="2249.577" cy="886.104" rx="93.355" ry="67.647"/>
			</g>
			<g style="opacity:0.5;">
				
					<ellipse transform="matrix(0.1739 -0.9848 0.9848 0.1739 747.8845 3053.4546)" style="fill:#FFFFFF;" cx="2193.923" cy="1080.958" rx="42.849" ry="36.771"/>
			</g>
			<g style="opacity:0.35;">
				<path style="fill:#101928;" d="M2286.253,660.837c72.152,51.392,121.591,129.097,137.25,237.69
					c14.723,102.195-4.8,201.828-50.178,288.48c-34.063,64.968-194.061,193.126-409.64,226.184
					c-76.118,11.686-151.866,7.228-219.347-5.694c264.133-46.284,458.877-203.349,501.1-283.925
					c57.649-109.983,82.393-236.455,63.698-366.103C2304.165,722.814,2296.41,690.647,2286.253,660.837z"/>
			</g>
			<g>
				<path style="fill:#371944;" d="M1391.593,826.74c-2.634,0-5.298-0.696-7.708-2.156c-6.804-4.128-9.172-12.793-5.471-19.749
					c72.456-148.164,239.443-251.201,458.237-282.725c217.407-31.318,406.394,17.944,518.564,135.132
					c4.778,4.766,5.891,12.341,2.251,18.345c-4.238,6.987-13.267,9.311-20.313,5.154l-1.792-1.052l-1.516-1.553
					c-105.386-110.303-285.059-156.394-492.932-126.445c-209.026,30.115-367.879,127.297-435.825,266.626l-0.759,1.37
					C1401.49,824.228,1396.595,826.74,1391.593,826.74z"/>
			</g>
			<g style="opacity:0.5;">
				<path style="fill:#FFFFFF;" d="M1525.434,1192.101c0,0-122.167-254.67,6.273-381.671s335.319-156.365,332.393-142.405
					c0,0-220.977,88.413-284.488,282.326C1530.637,1099.883,1525.434,1192.101,1525.434,1192.101z"/>
			</g>
		</g>
		<g>
			<g>
				<path style="fill:#FF0068;" d="M1187.505,717.89c16.077-26.304,24.004-57.879,20.612-90.912
					c-8.232-80.179-79.903-138.502-160.082-130.27c-80.179,8.232-138.502,79.903-130.27,160.082
					c8.232,80.179,79.903,138.502,160.082,130.27c22.302-2.29,42.904-9.5,60.862-20.424l67.536,15.146L1187.505,717.89z"/>
			</g>
			<g style="opacity:0.5;">
				<g>
					<path style="fill:#FFFFFF;" d="M1050.903,524.628c74.898-7.69,142.355,42.704,157.628,114.732
						c0.018-5.145-0.204-10.336-0.741-15.569c-8.232-80.178-79.903-138.502-160.082-130.27
						c-80.178,8.232-138.503,79.903-130.27,160.082c0.54,5.256,1.367,10.412,2.437,15.467
						C920.157,595.411,975.98,532.321,1050.903,524.628z"/>
				</g>
			</g>
			<g>
				<path style="fill:#371944;" d="M1062.825,800.993c-80.493,0.005-149.753-61.084-158.152-142.859
					c-4.338-42.275,8.042-83.711,34.866-116.672c26.824-32.964,64.878-53.508,107.151-57.849
					c87.312-8.897,165.559,54.753,174.521,142.019c3.381,32.949-3.347,65.325-19.477,94.009l17.141,58.438
					c1.311,4.473,0.161,9.304-3.027,12.705c-3.186,3.398-7.934,4.863-12.483,3.84l-62.48-14.014
					c-19.031,10.72-39.758,17.29-61.692,19.543C1073.699,800.715,1068.231,800.99,1062.825,800.993z M1063.038,509.096
					c-4.517,0-9.07,0.232-13.66,0.703c-35.278,3.621-67.036,20.767-89.424,48.276c-22.385,27.507-32.717,62.087-29.094,97.368
					c7.478,72.832,72.842,126.021,145.645,118.523c19.814-2.034,38.445-8.284,55.366-18.577c2.91-1.765,6.392-2.339,9.719-1.597
					l45.74,10.259l-12.454-42.458c-1.045-3.562-0.537-7.4,1.399-10.566c15.259-24.966,21.743-53.564,18.75-82.708
					C1188.018,560.08,1130.211,509.096,1063.038,509.096z"/>
			</g>
			<g style="opacity:0.2;">
				<path style="fill:#371944;" d="M1188.325,716.488c-39.973,33.811-95.042,48.617-149.727,35.006
					c-60.647-15.094-105.331-61.276-121.404-117.325c-0.384,7.432-0.212,14.986,0.572,22.619
					c8.232,80.179,79.903,138.502,160.082,130.27c22.302-2.29,42.904-9.5,60.862-20.424l67.537,15.146l-18.74-63.891
					C1187.788,717.428,1188.048,716.953,1188.325,716.488z"/>
			</g>
			<g>
				<path style="fill:#FFFFFF;" d="M1109.608,600.902L1109.608,600.902c-12.63-12.63-33.107-10.367-45.737,2.263l-1.966,1.966
					l-1.966-1.966c-12.63-12.63-33.107-14.893-45.737-2.263h0c-12.63,12.63-12.63,33.107,0,45.737l1.966,1.966l39.708,39.708
					c3.33,3.33,8.728,3.33,12.057,0l39.708-39.708l1.966-1.966C1122.238,634.009,1122.238,613.532,1109.608,600.902z"/>
			</g>
		</g>
	</g>
</g>
</svg>
