<?xml version="1.0" encoding="utf-8"?>
<!-- Generator: Adobe Illustrator 27.5.0, SVG Export Plug-In . SVG Version: 6.00 Build 0)  -->
<svg version="1.1" xmlns="http://www.w3.org/2000/svg" xmlns:xlink="http://www.w3.org/1999/xlink" x="0px" y="-100px"
	 viewBox="0 50 500 400" style="enable-background:new 0 50 500 400;" xml:space="preserve">

<g id="OBJECTS">
	<g>
		<g>
			<path style="fill:#103fef;" d="M435.972,373.942h-57.313v-3.625h57.313c10.699,0,19.403-8.705,19.403-19.403v-39.722
				c0-10.699-8.705-19.403-19.403-19.403h-92.349v-3.624h92.349c12.697,0,23.028,10.33,23.028,23.028v39.722
				C459,363.611,448.669,373.942,435.972,373.942z"/>
		</g>
		<g>
			<g>
				<rect x="81.457" y="370.317" style="fill:#103fef;" width="36.848" height="3.625"/>
			</g>
			<polygon style="fill:#103fef;" points="73,372.129 95.351,360.652 88.958,372.129 94.142,381.19 			"/>
		</g>
		<path style="fill:#103fef;" d="M135.887,84.848c0,14.088,5.029,27.162,13.646,38.026c-7.668,7.473-14.516,15.777-20.378,24.784
			c-4.939-8.837-7.694-18.714-7.694-29.15c0-14.673,5.445-28.24,14.699-39.352C135.991,81.027,135.887,82.925,135.887,84.848z"/>
		<path style="fill:#103fef;" d="M383.657,118.508c0,11.385-3.288,22.106-9.084,31.542c-5.796-9.279-12.606-17.857-20.3-25.576
			c9.409-11.151,14.958-24.835,14.958-39.625c0-1.923-0.104-3.821-0.273-5.692C378.225,90.268,383.657,103.836,383.657,118.508z"/>
		<circle style="fill:#103fef;" cx="251.2" cy="221.716" r="131.687"/>
		<g>
			<path style="fill:#BAAFB9;" d="M175.468,192.691h151.871v47.967H175.468L175.468,192.691z"/>
			<path style="fill:#AA9EA9;" d="M318.584,168.352h17.509c4.396,0,7.96,3.564,7.96,7.96v15.725h-33.43v-15.725
				C310.624,171.916,314.188,168.352,318.584,168.352z"/>
			<path style="fill:#AA9EA9;" d="M186.754,168.352h-17.509c-4.396,0-7.96,3.564-7.96,7.96v16.247h33.43v-16.247
				C194.715,171.916,191.151,168.352,186.754,168.352z"/>
			<g>
				<path style="fill:#D7D0D6;" d="M381.923,291.106l-19.993-90.211c-2.165-9.746-10.806-16.686-20.792-16.686h-25.253
					c-9.559,0-17.948,6.376-20.51,15.59l-1.915,6.866c-0.496,1.784-2.124,3.021-3.976,3.021h-74.151
					c-1.852,0-3.48-1.236-3.976-3.021l-1.915-6.866c-2.562-9.214-10.952-15.59-20.51-15.59h-25.253
					c-9.986,0-18.627,6.939-20.792,16.686l-19.994,90.211c-2.457,11.082,1.972,22.55,11.233,29.109
					c4.983,3.527,10.649,5.186,16.232,5.186c10.607,0,20.928-5.984,25.717-16.545l11.541-25.43h42.572l1.03,1.099l4.105,2.812
					c2.249,1.54,4.91,2.365,7.636,2.365h18.895c2.726,0,5.387-0.824,7.636-2.365l4.105-2.812l0.99-1.099h42.614l11.541,25.43
					c7.315,16.117,27.502,21.585,41.949,11.359c7.56-5.353,11.901-13.983,11.901-23.004
					C382.591,295.186,382.372,293.141,381.923,291.106L381.923,291.106z"/>
				<g>
					<path style="fill:#C9BFC8;" d="M169.202,281.859l19.994-90.211c0.583-2.623,1.638-5.04,3.058-7.175
						c-1.086-0.171-2.196-0.263-3.321-0.263h-25.253c-9.986,0-18.627,6.939-20.792,16.686l-19.994,90.211
						c-2.457,11.082,1.972,22.55,11.233,29.109c4.983,3.527,10.649,5.186,16.232,5.186c10.607,0,20.928-5.984,25.717-16.545
						l0.525-1.158C170.002,300.974,167.113,291.277,169.202,281.859L169.202,281.859z"/>
				</g>
				<circle style="fill:#BAAFB9;" cx="210.433" cy="267.443" r="28.26"/>
				<circle style="fill:#BAAFB9;" cx="295.739" cy="267.443" r="28.26"/>
				<g>
					<path style="fill:#AA9EA9;" d="M207.415,266.517c0-10.696,5.956-20.007,14.72-24.806c-3.564-1.622-7.532-2.529-11.703-2.529
						c-15.608,0-28.26,12.652-28.26,28.26s12.652,28.26,28.26,28.26c4.911,0,9.534-1.255,13.558-3.459
						C214.218,287.797,207.415,277.954,207.415,266.517L207.415,266.517z"/>
					<path style="fill:#AA9EA9;" d="M292.722,266.517c0-10.696,5.954-20.008,14.718-24.807c-3.564-1.622-7.53-2.528-11.701-2.528
						c-15.608,0-28.26,12.652-28.26,28.26s12.652,28.26,28.26,28.26c4.911,0,9.536-1.256,13.559-3.459
						C299.527,287.796,292.722,277.954,292.722,266.517L292.722,266.517z"/>
					
						<ellipse transform="matrix(0.9997 -0.0237 0.0237 0.9997 -6.2732 5.0573)" style="fill:#AA9EA9;" cx="210.433" cy="267.443" rx="11.253" ry="11.253"/>
				</g>
				<path style="fill:#9B8E99;" d="M207.415,266.517c0-3.625,0.684-7.089,1.928-10.272c-5.695,0.55-10.163,5.36-10.163,11.197
					c0,6.114,4.905,11.096,10.986,11.239C208.404,274.998,207.415,270.874,207.415,266.517L207.415,266.517z"/>
				<circle style="fill:#AA9EA9;" cx="294.384" cy="267.443" r="11.253"/>
				<path style="fill:#9B8E99;" d="M292.722,266.517c0-3.64,0.69-7.118,1.943-10.313c-0.094-0.003-0.186-0.014-0.281-0.014
					c-6.205,0-11.253,5.048-11.253,11.253c0,6.205,5.048,11.253,11.253,11.253c0.361,0,0.716-0.021,1.068-0.054
					C293.703,274.968,292.722,270.858,292.722,266.517L292.722,266.517z"/>
				<path style="fill:#EB5569;" d="M250.249,166.833l-42.721-30.068c-0.998-0.702-1.592-1.846-1.592-3.067v-25.579
					c0-1.27,0.643-2.454,1.708-3.146l19.901-12.919c1.425-0.925,3.293-0.777,4.554,0.361l17.796,16.056
					c1.428,1.288,3.597,1.288,5.025,0l17.796-16.056c1.261-1.138,3.129-1.286,4.554-0.361l19.901,12.919
					c1.065,0.692,1.708,1.875,1.708,3.146v25.579c0,1.22-0.594,2.365-1.592,3.067l-42.721,30.068
					C253.272,167.745,251.544,167.745,250.249,166.833L250.249,166.833z"/>
				<g>
					<path style="fill:#E53950;" d="M251.936,146.602c-7.676-5.402-12.242-14.201-12.242-23.586V110.46
						c0-1.27,0.643-2.454,1.708-3.146l4.194-2.723l-13.497-12.176c-1.261-1.138-3.13-1.286-4.554-0.361l-19.901,12.919
						c-1.065,0.692-1.708,1.875-1.708,3.146v25.579c0,1.22,0.594,2.365,1.592,3.067l42.721,30.068c1.295,0.911,3.022,0.911,4.317,0
						l13.057-9.19L251.936,146.602z"/>
				</g>
				<path style="fill:#6CF5C2;" d="M325.773,202.992c3.79,0,6.863,3.073,6.863,6.863s-3.073,6.863-6.863,6.863
					c-3.79,0-6.863-3.073-6.863-6.863S321.983,202.992,325.773,202.992z"/>
				<path style="fill:#8B8089;" d="M325.773,240.659c3.79,0,6.863,3.073,6.863,6.863c0,3.79-3.073,6.863-6.863,6.863
					c-3.79,0-6.863-3.073-6.863-6.863C318.91,243.732,321.983,240.659,325.773,240.659z"/>
				<circle style="fill:#FEDF30;" cx="345.968" cy="228.688" r="6.863"/>
				<path style="fill:#EB5569;" d="M305.579,221.825c3.79,0,6.863,3.073,6.863,6.863c0,3.79-3.073,6.863-6.863,6.863
					s-6.863-3.073-6.863-6.863C298.716,224.898,301.788,221.825,305.579,221.825z"/>
				<path style="fill:#BAAFB9;" d="M192.147,220.379h-7.806c-1.025,0-1.857-0.831-1.857-1.857v-7.806
					c0-2.177-1.765-3.941-3.941-3.941h-8.155c-2.176,0-3.941,1.764-3.941,3.941v7.806c0,1.025-0.831,1.857-1.857,1.857h-7.807
					c-2.176,0-3.941,1.765-3.941,3.941v8.155c0,2.177,1.765,3.941,3.941,3.941h7.806c1.025,0,1.857,0.831,1.857,1.857v7.806
					c0,2.177,1.765,3.941,3.941,3.941h8.155c2.176,0,3.941-1.765,3.941-3.941v-7.806c0-1.025,0.831-1.857,1.857-1.857h7.806
					c2.176,0,3.941-1.764,3.941-3.941v-8.155C196.087,222.143,194.323,220.379,192.147,220.379z"/>
				<path style="fill:#AA9EA9;" d="M182.484,218.522v-7.806c0-2.177-1.765-3.941-3.941-3.941h-8.155
					c-2.177,0-3.941,1.765-3.941,3.941v7.806c0,1.025-0.831,1.857-1.857,1.857h-7.806c-2.177,0-3.941,1.765-3.941,3.941v8.155
					c0,2.177,1.765,3.941,3.941,3.941h7.806c1.025,0,1.857,0.831,1.857,1.857v7.806c0,2.177,1.765,3.941,3.941,3.941h5.871
					l6.707-30.261C182.669,219.43,182.484,218.999,182.484,218.522L182.484,218.522z"/>
			</g>
			<g>
				<path  d="M385.745,290.261l-19.997-90.211c-2.067-9.323-8.982-16.388-17.781-18.825v-4.913c0-6.547-5.326-11.874-11.874-11.874
					h-17.509c-6.547,0-11.874,5.326-11.874,11.874v5.729c-3.706,1.458-7.018,3.774-9.657,6.736h-89.29
					c-2.515-2.822-5.641-5.055-9.135-6.521v-5.944c0-6.547-5.327-11.874-11.874-11.874h-17.509c-6.547,0-11.873,5.326-11.873,11.874
					v4.772c-9.047,2.298-16.195,9.458-18.303,18.965l-12.086,54.524c-0.467,2.11,0.864,4.2,2.973,4.667
					c0.285,0.063,0.57,0.093,0.85,0.093c1.795,0,3.412-1.242,3.817-3.067l12.086-54.524c1.778-8.019,8.755-13.619,16.969-13.619
					h25.25c7.775,0,14.661,5.232,16.745,12.722l1.911,6.866c0.965,3.467,4.152,5.887,7.749,5.887h49.924
					c2.161,0,3.913-1.752,3.913-3.913s-1.752-3.913-3.913-3.913h-49.924c-0.097,0-0.183-0.065-0.209-0.159l-1.911-6.866
					c-0.203-0.73-0.44-1.445-0.705-2.144h79.798c-0.264,0.7-0.501,1.413-0.705,2.144l-1.911,6.866
					c-0.026,0.094-0.112,0.159-0.209,0.159h-7.549c-2.161,0-3.913,1.752-3.913,3.913s1.752,3.913,3.913,3.913h7.549
					c3.598,0,6.784-2.421,7.749-5.887l1.911-6.866c2.084-7.49,8.969-12.722,16.745-12.722h25.25c8.213,0,15.191,5.6,16.969,13.619
					l19.997,90.211c2.12,9.565-1.677,19.404-9.673,25.064c-5.93,4.198-13.352,5.517-20.366,3.618
					c-7.013-1.898-12.757-6.781-15.76-13.397l-11.148-24.562c2.57-4.497,4.046-9.696,4.046-15.236c0-2.161-1.752-3.913-3.913-3.913
					c-2.161,0-3.913,1.752-3.913,3.913c0,12.678-10.315,22.992-22.992,22.992c-12.678,0-22.992-10.315-22.992-22.992
					c0-2.161-1.752-3.913-3.913-3.913s-3.913,1.752-3.913,3.913c0,5.895,1.666,11.407,4.549,16.094l-0.835,0.572
					c-1.604,1.099-3.48,1.68-5.424,1.68H242.96c-1.945,0-3.82-0.581-5.424-1.68l-0.834-0.571c2.883-4.688,4.549-10.199,4.549-16.095
					c0-2.161-1.752-3.913-3.913-3.913s-3.913,1.752-3.913,3.913c0,12.678-10.314,22.992-22.992,22.992
					c-12.678,0-22.992-10.315-22.992-22.992c0-2.161-1.752-3.913-3.913-3.913s-3.913,1.752-3.913,3.913
					c0,5.54,1.477,10.738,4.046,15.236l-11.148,24.562c-3.003,6.616-8.747,11.499-15.76,13.397
					c-7.012,1.899-14.435,0.58-20.366-3.618c-7.997-5.66-11.794-15.499-9.674-25.064l4.266-19.245
					c0.467-2.11-0.863-4.199-2.973-4.667c-2.109-0.468-4.199,0.863-4.667,2.973l-4.266,19.246
					c-2.804,12.649,2.217,25.66,12.793,33.145c5.491,3.887,11.95,5.907,18.513,5.907c2.81,0,5.639-0.37,8.419-1.123
					c9.274-2.511,16.87-8.968,20.842-17.717l9.454-20.829c5.542,5.329,13.062,8.615,21.34,8.615c8.277,0,15.797-3.286,21.339-8.615
					l1.341,0.919c2.913,1.995,6.317,3.05,9.848,3.05h18.895c3.53,0,6.935-1.054,9.847-3.05l1.342-0.919
					c5.543,5.329,13.062,8.615,21.34,8.615c8.278,0,15.797-3.286,21.34-8.615l9.454,20.829c3.971,8.749,11.568,15.206,20.842,17.717
					c2.78,0.752,5.608,1.123,8.418,1.123c6.563,0,13.023-2.021,18.513-5.907C383.527,315.921,388.548,302.911,385.745,290.261
					L385.745,290.261z M165.198,180.298v-3.986c0-2.231,1.815-4.047,4.047-4.047h17.509c2.232,0,4.047,1.815,4.047,4.047v3.986
					h-1.872H165.198z M315.887,180.298h-1.351v-3.986c0-2.231,1.816-4.047,4.047-4.047h17.509c2.232,0,4.047,1.815,4.047,4.047
					v3.986H315.887z"/>
				<path  d="M195.267,267.443c0,8.362,6.804,15.166,15.166,15.166c8.362,0,15.166-6.804,15.166-15.166s-6.804-15.166-15.166-15.166
					C202.07,252.277,195.267,259.081,195.267,267.443z M210.433,260.103c4.047,0,7.339,3.293,7.339,7.34s-3.293,7.34-7.339,7.34
					c-4.047,0-7.34-3.293-7.34-7.34S206.385,260.103,210.433,260.103z"/>
				<path  d="M279.218,267.443c0,8.362,6.804,15.166,15.166,15.166c8.362,0,15.166-6.804,15.166-15.166s-6.804-15.166-15.166-15.166
					C286.022,252.277,279.218,259.081,279.218,267.443z M301.724,267.443c0,4.047-3.293,7.34-7.34,7.34s-7.34-3.293-7.34-7.34
					s3.293-7.34,7.34-7.34S301.724,263.396,301.724,267.443z"/>
				<path  d="M257.185,261.574c2.161,0,3.913-1.752,3.913-3.913s-1.752-3.913-3.913-3.913h-8.502c-2.161,0-3.913,1.752-3.913,3.913
					s1.752,3.913,3.913,3.913H257.185z"/>
				<path d="M236.997,236.775c2.161,0,3.913-1.752,3.913-3.913s-1.752-3.913-3.913-3.913h-4.734c-2.161,0-3.913,1.752-3.913,3.913
					s1.752,3.913,3.913,3.913H236.997z"/>
				<path d="M268.341,236.775h4.734c2.161,0,3.913-1.752,3.913-3.913s-1.752-3.913-3.913-3.913h-4.734
					c-2.161,0-3.913,1.752-3.913,3.913S266.18,236.775,268.341,236.775z"/>
				<path  d="M205.276,139.965l42.721,30.068c1.32,0.928,2.865,1.393,4.411,1.393c1.546,0,3.092-0.464,4.411-1.393l15.347-10.801
					c1.767-1.244,2.191-3.685,0.947-5.452c-1.244-1.767-3.685-2.191-5.452-0.948l-15.253,10.736l-42.558-29.953v-25.407
					l19.722-12.803l17.704,15.972c2.926,2.64,7.341,2.64,10.267,0l17.704-15.972l19.722,12.802v25.407l-13.463,9.476
					c-1.768,1.244-2.192,3.685-0.948,5.452c1.243,1.767,3.685,2.191,5.452,0.948l13.533-9.524c2.036-1.434,3.253-3.776,3.253-6.267
					v-25.579c0-2.606-1.304-5.009-3.49-6.428l-19.9-12.919c-2.907-1.888-6.734-1.584-9.307,0.737l-17.687,15.957l-17.687-15.957
					c-2.573-2.322-6.4-2.625-9.306-0.738l-19.901,12.919c-2.186,1.419-3.49,3.822-3.49,6.428v25.579
					C202.023,136.189,203.239,138.531,205.276,139.965L205.276,139.965z"/>
				<path fill="#AA9EA9" d="M167.115,108.036c2.161,0,3.913-1.752,3.913-3.913v-3.597c0-2.161-1.752-3.913-3.913-3.913s-3.913,1.752-3.913,3.913
					v3.597C163.201,106.284,164.953,108.036,167.115,108.036z"/>
				<path fill="#AA9EA9" d="M178.107,119.427h3.597c2.161,0,3.913-1.752,3.913-3.913s-1.752-3.913-3.913-3.913h-3.597
					c-2.161,0-3.913,1.752-3.913,3.913S175.946,119.427,178.107,119.427z"/>
				<path fill="#AA9EA9" d="M166.715,134.017c2.161,0,3.913-1.752,3.913-3.913v-3.597c0-2.161-1.752-3.913-3.913-3.913
					c-2.161,0-3.913,1.752-3.913,3.913v3.597C162.802,132.265,164.554,134.017,166.715,134.017z"/>
				<path fill="#AA9EA9" d="M152.126,119.027h3.597c2.161,0,3.913-1.752,3.913-3.913c0-2.161-1.752-3.913-3.913-3.913h-3.597
					c-2.161,0-3.913,1.752-3.913,3.913C148.212,117.275,149.965,119.027,152.126,119.027z"/>
				<path fill="#AA9EA9" d="M338.224,108.036c2.161,0,3.913-1.752,3.913-3.913v-3.597c0-2.161-1.752-3.913-3.913-3.913s-3.913,1.752-3.913,3.913
					v3.597C334.311,106.284,336.062,108.036,338.224,108.036z"/>
				<path  fill="#AA9EA9" d="M323.635,119.427h3.597c2.161,0,3.913-1.752,3.913-3.913s-1.752-3.913-3.913-3.913h-3.597
					c-2.161,0-3.913,1.752-3.913,3.913S321.474,119.427,323.635,119.427z"/>
				<path fill="#AA9EA9" d="M338.624,122.593c-2.161,0-3.913,1.752-3.913,3.913v3.597c0,2.161,1.752,3.913,3.913,3.913s3.913-1.752,3.913-3.913
					v-3.597C342.537,124.345,340.785,122.593,338.624,122.593z"/>
				<path fill="#AA9EA9" d="M349.615,119.027h3.598c2.161,0,3.913-1.752,3.913-3.913c0-2.161-1.752-3.913-3.913-3.913h-3.598
					c-2.161,0-3.913,1.752-3.913,3.913C345.702,117.275,347.454,119.027,349.615,119.027z"/>
				<path  d="M325.773,199.078c-5.942,0-10.776,4.835-10.776,10.776c0,5.942,4.835,10.776,10.776,10.776
					c5.942,0,10.776-4.835,10.776-10.776C336.55,203.912,331.715,199.078,325.773,199.078z M325.773,212.805
					c-1.627,0-2.95-1.324-2.95-2.95s1.324-2.95,2.95-2.95c1.626,0,2.95,1.324,2.95,2.95S327.4,212.805,325.773,212.805z"/>
				<path d="M325.773,236.746c-5.942,0-10.776,4.835-10.776,10.776c0,5.942,4.835,10.776,10.776,10.776
					c5.942,0,10.776-4.835,10.776-10.776C336.55,241.58,331.715,236.746,325.773,236.746z M325.773,250.472
					c-1.627,0-2.95-1.324-2.95-2.95c0-1.626,1.324-2.95,2.95-2.95c1.626,0,2.95,1.324,2.95,2.95
					C328.723,249.148,327.4,250.472,325.773,250.472z"/>
				<path d="M345.968,239.465c5.942,0,10.777-4.835,10.777-10.776c0-5.942-4.835-10.776-10.777-10.776
					c-5.942,0-10.776,4.835-10.776,10.776C335.191,234.63,340.026,239.465,345.968,239.465z M345.968,225.738
					c1.627,0,2.951,1.324,2.951,2.95c0,1.626-1.324,2.95-2.951,2.95s-2.95-1.324-2.95-2.95
					C343.018,227.061,344.341,225.738,345.968,225.738z"/>
				<path d="M305.579,217.911c-5.942,0-10.776,4.835-10.776,10.776c0,5.942,4.835,10.776,10.776,10.776
					c5.942,0,10.776-4.835,10.776-10.776C316.355,222.746,311.521,217.911,305.579,217.911z M305.579,231.638
					c-1.627,0-2.95-1.324-2.95-2.95c0-1.626,1.324-2.95,2.95-2.95c1.626,0,2.95,1.324,2.95,2.95
					C308.529,230.315,307.205,231.638,305.579,231.638z"/>
				<path d="M178.543,202.862h-8.155c-4.331,0-7.854,3.523-7.854,7.854v5.75h-5.75c-4.33,0-7.854,3.523-7.854,7.854v8.155
					c0,4.331,3.523,7.854,7.854,7.854h5.75v5.75c0,4.331,3.523,7.854,7.854,7.854h8.155c4.331,0,7.854-3.523,7.854-7.854v-5.75h5.75
					c4.331,0,7.854-3.523,7.854-7.854v-8.155c0-4.331-3.523-7.854-7.854-7.854h-5.75v-5.75
					C186.397,206.385,182.874,202.862,178.543,202.862z M192.147,224.292l0.028,0.028l-0.028,8.183h-7.806
					c-3.182,0-5.77,2.588-5.77,5.77l-0.028,7.834l-8.183-0.028v-7.806c0-3.182-2.588-5.77-5.77-5.77l-7.834-0.028l0.028-8.183h7.806
					c3.182,0,5.77-2.589,5.77-5.77l0.028-7.834l8.183,0.028v7.806c0,3.182,2.588,5.77,5.77,5.77H192.147z"/>
			</g>
		</g>
		<g>
			
				<text transform="matrix(1 0 0 1 125.5537 388.5898)" style="fill:#AA9EA9;stroke:#AA9EA9; font-family:'Bungee-Regular'; font-size:39.5787px;">GAME</text>
			<text transform="matrix(1 0 0 1 260.8652 388.5898)" style="font-family:'Bungee-Regular';fill:#AA9EA9;stroke:#AA9EA9; font-size:39.5787px;">ZONE</text>
		</g>
	</g>
</g>
</svg>
